<?xml version="1.0" standalone="no"?>
<!DOCTYPE svg PUBLIC "-//W3C//DTD SVG 20010904//EN"
 "http://www.w3.org/TR/2001/REC-SVG-20010904/DTD/svg10.dtd">
<svg version="1.0" xmlns="http://www.w3.org/2000/svg"
 width="1024.000000pt" height="1024.000000pt" viewBox="0 0 1024.000000 1024.000000"
 preserveAspectRatio="xMidYMid meet">
<metadata>
Created by potrace 1.11, written by Peter Selinger 2001-2013
</metadata>
<g transform="translate(0.000000,1024.000000) scale(0.100000,-0.100000)"
fill="#000000" stroke="none">
<path d="M2159 10226 c-2 -2 -31 -6 -64 -9 -256 -25 -513 -98 -763 -217 -106
-51 -286 -152 -302 -170 -3 -3 -21 -17 -40 -30 -147 -101 -332 -272 -455 -421
-238 -287 -422 -675 -491 -1034 -2 -11 -6 -31 -9 -45 -7 -37 -15 -91 -25 -172
-4 -40 -9 -1389 -9 -2998 -1 -2532 1 -2942 14 -3050 8 -69 17 -136 20 -150 3
-14 8 -40 11 -59 23 -136 118 -408 202 -575 242 -484 631 -862 1117 -1086 84
-39 322 -125 369 -134 12 -2 50 -11 86 -19 36 -9 115 -23 175 -33 103 -17 294
-18 3081 -19 1635 -1 3003 2 3040 6 127 15 159 20 234 35 477 97 900 327 1230
670 241 251 420 540 532 864 37 104 86 297 94 365 4 27 8 53 10 56 16 28 19
541 19 3144 0 3243 4 3009 -50 3253 -74 334 -237 675 -453 947 -71 90 -277
296 -367 367 -64 51 -226 163 -285 197 -255 148 -579 260 -855 297 -27 4 -59
9 -70 13 -21 6 -5989 14 -5996 7z"/>
</g>
</svg>
