<svg id="Layer_1" data-name="Layer 1" xmlns="http://www.w3.org/2000/svg" xmlns:xlink="http://www.w3.org/1999/xlink" viewBox="0 0 335.47 92.7"><defs><linearGradient id="linear-gradient" x1="80.78" y1="458.9" x2="17.78" y2="407.29" gradientTransform="translate(0 -386)" gradientUnits="userSpaceOnUse"><stop offset="0" stop-color="#2bbc9f"/><stop offset="0.15" stop-color="#2bbc9f"/><stop offset="0.47" stop-color="#33d5ba"/><stop offset="0.91" stop-color="#20dbd5"/></linearGradient></defs><g id="Layer_3" data-name="Layer 3"><path d="M27.8,6.7H72.1A18.8,18.8,0,0,1,91,25.5V69.8A18.78,18.78,0,0,1,72.2,88.6H27.8A18.71,18.71,0,0,1,9,69.8V25.5A18.78,18.78,0,0,1,27.8,6.7Z" style="fill:url(#linear-gradient)"/></g><polyline points="9 59.2 23 45.2 33.3 56.2 56.7 30.8 51 25.8 71 19.8 69.7 39.5 64 34.5 33.3 68.5 23 58.2 9 71.2" style="fill:#fff"/><path d="M111.69,70.8l-14.4-42h5.58l10,30.36,1.26,4.26q.24-1.14,1.2-4.26l9.72-30.36h5.58l-14.34,42Z" style="fill:#20dbd5"/><path d="M146.13,71.52a12.21,12.21,0,0,1-9.93-4.47q-3.69-4.47-3.69-11.61,0-7.5,3.72-11.76a12.49,12.49,0,0,1,9.9-4.26,12.1,12.1,0,0,1,9.09,3.69q3.57,3.69,3.57,10.89,0,1.68-.18,3.48H137.85a10.88,10.88,0,0,0,2.61,6.75,7.48,7.48,0,0,0,5.79,2.55,9,9,0,0,0,6.6-2.76L156,67.56A13.43,13.43,0,0,1,146.13,71.52ZM137.79,53h15.72q-.06-4.74-2.25-6.87A7.12,7.12,0,0,0,146.13,44a7.94,7.94,0,0,0-5.82,2.25Q138,48.54,137.79,53Z" style="fill:#20dbd5"/><path d="M180,71.52a11,11,0,0,1-7.86-3.36V70.8h-5.22V29.94l5.22-2.46v15.3a10,10,0,0,1,7.68-3.36A11.33,11.33,0,0,1,189,43.68q3.48,4.26,3.48,11.76,0,7.74-3.33,11.91A11.13,11.13,0,0,1,180,71.52Zm-.72-4.86a6.68,6.68,0,0,0,5.91-3q2-3,2-8.25,0-5.46-2-8.34a6.75,6.75,0,0,0-5.91-2.88,7.7,7.7,0,0,0-4.32,1.26,8.6,8.6,0,0,0-2.82,2.82V62.52a8.39,8.39,0,0,0,3.06,3A8,8,0,0,0,179.25,66.66Z" style="fill:#20dbd5"/><path d="M226.83,70.8V51.48H207V70.8h-5.22v-42H207V46.56h19.8V28.8h5.22v42Z" style="fill:#103730"/><path d="M264.87,67.23a13.6,13.6,0,0,1-19.8,0Q241.41,63,241.41,55.5t3.66-11.79a13.6,13.6,0,0,1,19.8,0q3.66,4.26,3.66,11.76T264.87,67.23Zm-16-3.54a7.73,7.73,0,0,0,12.18,0q2.19-3,2.19-8.25t-2.19-8.22a7.7,7.7,0,0,0-12.18,0q-2.19,3-2.19,8.31T248.88,63.69Z" style="fill:#103730"/><path d="M277.29,70.8V29.94l5.22-2.46V70.8Z" style="fill:#103730"/><path d="M298,33.63a3.24,3.24,0,0,1-2.34.93,3.09,3.09,0,0,1-2.31-1,3.17,3.17,0,0,1-.93-2.28,3.28,3.28,0,0,1,1-2.37,3.07,3.07,0,0,1,2.28-1A3.14,3.14,0,0,1,298,29a3.28,3.28,0,0,1,1,2.37A3.09,3.09,0,0,1,298,33.63ZM293.07,70.8V40.14h5.22V70.8Z" style="fill:#103730"/><path d="M319.47,71.52a11.32,11.32,0,0,1-9.3-4.23q-3.42-4.23-3.42-11.79t3.45-11.82a11.57,11.57,0,0,1,9.51-4.26q8.16,0,10.74,7.14l-4.92,1.8a5.74,5.74,0,0,0-5.76-4.08A6.42,6.42,0,0,0,314,47.22q-1.92,2.94-1.92,8.28T314,63.69a6.27,6.27,0,0,0,5.58,2.91A6,6,0,0,0,325.83,62l4.86,1.62a10.57,10.57,0,0,1-4.05,5.82A12.18,12.18,0,0,1,319.47,71.52Z" style="fill:#103730"/></svg>